{
    "asset" : {
        "generator" : "Khronos glTF Blender I/O v3.3.32",
        "version" : "2.0"
    },
    "scene" : 0,
    "scenes" : [
        {
            "name" : "Scene",
            "nodes" : [
                0
            ]
        }
    ],
    "nodes" : [
        {
            "mesh" : 0,
            "name" : "petite_vapeur",
            "rotation" : [
                0,
                0.9979839324951172,
                0,
                0.06346733123064041
            ],
            "scale" : [
                0.002437941264361143,
                0.009038420394062996,
                0.002437941264361143
            ]
        }
    ],
    "materials" : [
        {
            "doubleSided" : true,
            "name" : "smoke.003",
            "pbrMetallicRoughness" : {
                "metallicFactor" : 0,
                "roughnessFactor" : 0.5
            }
        }
    ],
    "meshes" : [
        {
            "name" : "Cube.021",
            "primitives" : [
                {
                    "attributes" : {
                        "POSITION" : 0,
                        "NORMAL" : 1,
                        "TEXCOORD_0" : 2
                    },
                    "indices" : 3,
                    "material" : 0
                }
            ]
        }
    ],
    "accessors" : [
        {
            "bufferView" : 0,
            "componentType" : 5126,
            "count" : 329,
            "max" : [
                1.5602573156356812,
                0.9469059705734253,
                0.9070534110069275
            ],
            "min" : [
                -1.2393256425857544,
                -0.9322844743728638,
                -1.5015075206756592
            ],
            "type" : "VEC3"
        },
        {
            "bufferView" : 1,
            "componentType" : 5126,
            "count" : 329,
            "type" : "VEC3"
        },
        {
            "bufferView" : 2,
            "componentType" : 5126,
            "count" : 329,
            "type" : "VEC2"
        },
        {
            "bufferView" : 3,
            "componentType" : 5123,
            "count" : 1728,
            "type" : "SCALAR"
        }
    ],
    "bufferViews" : [
        {
            "buffer" : 0,
            "byteLength" : 3948,
            "byteOffset" : 0,
            "target" : 34962
        },
        {
            "buffer" : 0,
            "byteLength" : 3948,
            "byteOffset" : 3948,
            "target" : 34962
        },
        {
            "buffer" : 0,
            "byteLength" : 2632,
            "byteOffset" : 7896,
            "target" : 34962
        },
        {
            "buffer" : 0,
            "byteLength" : 3456,
            "byteOffset" : 10528,
            "target" : 34963
        }
    ],
    "buffers" : [
        {
            "byteLength" : 13984,
            "uri" : "vapeur.bin"
        }
    ]
}
